<svg xmlns="http://www.w3.org/2000/svg" viewBox="0 0 240 240" role="img" aria-label="Obscur logo">
  <defs>
    <linearGradient id="obscur-gradient" x1="0%" y1="0%" x2="100%" y2="100%">
      <stop offset="0%" stop-color="#111827" />
      <stop offset="50%" stop-color="#0f172a" />
      <stop offset="100%" stop-color="#1f2937" />
    </linearGradient>
    <radialGradient id="obscur-glow" cx="30%" cy="30%" r="70%">
      <stop offset="0%" stop-color="#4ade80" stop-opacity="0.7" />
      <stop offset="40%" stop-color="#22c55e" stop-opacity="0.1" />
      <stop offset="100%" stop-color="#22c55e" stop-opacity="0" />
    </radialGradient>
  </defs>
  <rect width="240" height="240" rx="64" fill="url(#obscur-gradient)" />
  <circle cx="88" cy="92" r="88" fill="url(#obscur-glow)" />
  <path
    fill="none"
    stroke="#a5b4fc"
    stroke-width="18"
    stroke-linecap="round"
    stroke-linejoin="round"
    d="M88 64c-32 0-52 22-52 56 0 34 20 56 52 56s52-22 52-56c0-16.5-5.1-30.5-14.5-40.5m30.5 0c12.3 13.3 19 31.2 19 50.5 0 51.6-36.8 89-87 89s-87-37.4-87-89S35.8 32 86 32c13.6 0 26.4 3.2 37.6 9.1"
  />
  <path
    fill="#a5b4fc"
    d="M162 64c0 8.8-7.2 16-16 16s-16-7.2-16-16 7.2-16 16-16 16 7.2 16 16Z"
    opacity="0.9"
  />
</svg>
